<svg width="320" height="414" viewBox="0 0 320 414" fill="none" xmlns="http://www.w3.org/2000/svg">
<path d="M75.3115 115.456C48.2303 121.56 9.73452 112.912 -6.12824 107.825C-7.60004 190.329 -9.66055 357.244 -6.12824 364.875C-1.71285 374.413 54.7063 333.399 82.6705 308.124C110.635 282.848 210.227 243.265 215.623 242.788C221.02 242.311 255.853 181.268 255.853 172.207C255.853 164.958 223.473 151.7 223.473 136.916C173.922 136.916 102.393 109.351 75.3115 115.456Z" fill="#F9B404"/>
<path d="M114.499 274.512L124.073 252.108L221.477 250.224C221.249 259.943 229.904 277.836 234.259 285.567C253.67 305.54 294.876 348.413 304.421 360.12C313.965 371.828 291.733 400.895 279.424 413.964H219.204C227.821 401.815 244.712 377.406 243.349 376.964C241.985 376.522 196.006 334.441 173.187 313.456L139.101 413.964H83.9941C84.4676 409.454 85.8689 398.557 87.6869 391.046C89.5048 383.536 106.319 310.227 114.499 274.512Z" fill="#328ED0"/>
<path d="M240.045 222.994L219.109 241.704C218.51 244.574 221.121 248.901 220.657 252.354C220.194 255.808 226.339 271.496 230.33 278.816C233.612 278.065 243.055 275.553 247.689 272.249C252.323 268.946 246.659 264.116 243.248 262.114L259.462 245.479L240.045 222.994Z" fill="#EBBF90"/>
<path d="M124.291 251.824L118.965 220.179L223.856 220.179L221.512 251.824H124.291Z" fill="#F9B404"/>
<path d="M122.507 239.604C122.226 237.556 109.516 228.17 103.196 223.733L82.1289 245.235L96.5245 259.57C94.6519 259.514 91.1173 261.038 91.96 267.591C93.0133 275.783 117.416 277.318 122.507 272.54C127.598 267.762 122.858 242.164 122.507 239.604Z" fill="#FDD3A5"/>
<path d="M274.16 184.09L236.286 154.773C236.286 134.547 237.618 93.9583 242.949 93.4129C249.612 92.7311 316.592 154.773 319.398 177.272C321.642 195.271 280.121 231.588 259.08 247.496L238.039 224.315L274.16 184.09Z" fill="#1985D3"/>
<path d="M59.7264 126.833C75.8936 107.882 93.9977 95.6084 101.029 91.8408C109.055 91.8408 127.07 90.7502 134.916 86.388C144.723 80.9352 237.15 88.988 243.391 91.8408C248.384 94.123 232.593 178.135 224.073 219.856H118.868C117.441 205.296 106.381 172.382 101.029 157.744C89.837 167.278 67.8695 186.345 69.5338 186.345C71.1981 186.345 93.4082 210.997 104.305 223.323L80.8271 247.879C69.2366 239.02 42.7271 217.314 29.4129 201.367C12.7702 181.434 39.5174 150.522 59.7264 126.833Z" fill="#328ED0"/>
<path d="M113.784 87.7299C127.444 90.1274 143.875 83.6393 150.384 80.0955C150.832 79.336 153.578 77.6787 160.978 77.1254C170.227 76.4338 173.784 85.194 206.986 85.194C233.547 85.194 244.614 91.3416 246.828 94.4154C239.16 92.5711 223.018 89.9891 219.792 94.4154C216.567 98.8416 205.01 104.251 199.634 106.403C184.061 106.326 152.108 106.219 148.883 106.403C144.851 106.634 123.033 110.322 113.784 99.7176C106.384 91.234 95.8583 95.94 91.9849 97.7074C93.2497 94.4799 100.123 85.3323 113.784 87.7299Z" fill="#F9B404"/>
<path d="M148.442 87.3479L150.653 55.5029L182.006 59.0196C183.346 63.2525 189.119 71.4122 188.476 75.3195C187.672 80.2037 190.648 85.5896 191.653 91.0599C192.658 96.5302 177.384 103.759 177.384 104.736C161.788 109.112 151.591 94.9672 148.442 87.3479Z" fill="#EBBF90"/>
<path d="M152.554 61.1976C150.615 59.8927 147.644 55.7001 146.401 53.7669L142.289 42.6665C141.84 42.168 142.924 39.376 150.848 32.1967C158.772 25.0175 184.73 27.7097 196.719 29.9532L199.027 38.3664C199.283 38.3353 200.005 38.3851 200.842 38.8338C201.888 39.3947 199.315 41.0774 199.796 42.6665C200.108 43.6979 200.456 52.4397 200.661 58.6825C200.8 62.8812 200.547 67.1782 198.649 70.9262C193.892 80.3207 185.469 82.3459 181.266 82.0395C155.351 79.5022 154.978 62.8287 152.554 61.1976Z" fill="#FDD3A5"/>
<path d="M182.871 64.9148C185.307 67.3453 191.733 69.5569 196.81 62.9759" stroke="#93623E"/>
<path d="M173.158 67.7192C172.292 57.4364 184.025 58.8386 185.082 59.2125C185.644 59.4109 187.99 58.8465 189.956 58.1332C190.896 58.2125 193.391 58.0534 195.853 56.782C198.93 55.1929 204.219 56.8755 206.624 59.9604C209.028 63.0452 207.585 65.4757 206.624 66.2235C205.662 66.9714 201.623 60.4278 199.796 62.2039C198.334 63.6248 194.507 63.3568 192.776 63.0452C192.391 62.5778 191.218 61.9234 189.602 63.0452C187.987 64.167 185.339 64.6344 184.217 64.7278C178.832 64.4474 177.485 68.7475 175.562 70.8041C174.023 72.4493 173.318 69.433 173.158 67.7192Z" fill="#90633E"/>
<path d="M188.16 43.0404C189.442 47.1535 192.16 55.5667 192.776 56.3146C193.137 56.7536 191.696 57.5017 189.956 58.1332M189.956 58.1332C187.99 58.8465 185.644 59.4109 185.082 59.2125C184.025 58.8386 172.292 57.4364 173.158 67.7192C173.318 69.433 174.023 72.4493 175.562 70.8041C177.485 68.7475 178.832 64.4474 184.217 64.7278C185.339 64.6344 187.987 64.167 189.602 63.0452C191.218 61.9234 192.391 62.5778 192.776 63.0452C194.507 63.3568 198.334 63.6248 199.796 62.2039C201.623 60.4278 205.662 66.9714 206.624 66.2235C207.585 65.4757 209.028 63.0452 206.624 59.9604C204.219 56.8755 198.93 55.1929 195.853 56.782C193.391 58.0534 190.896 58.2125 189.956 58.1332Z" stroke="#93623E"/>
<path d="M169.696 43.7882C170.754 43.1339 179.601 43.2274 181.236 45.3774M191.526 43.7882C192.84 42.1056 196.257 38.8712 199.411 39.3947" stroke="#5D3F1C" stroke-width="2" stroke-linecap="round" stroke-linejoin="round"/>
<ellipse cx="175.995" cy="48.0884" rx="1.68291" ry="2.71092" fill="#442C26"/>
<ellipse cx="195.517" cy="45.6227" rx="1.68291" ry="2.71092" fill="#442C26"/>
<path d="M157.576 49.9841L159.064 30.2595C147.377 31.2063 142.651 39.2451 141.749 43.1462L146.213 53.5345V51.4306C149.568 41.6471 155.186 46.3898 157.576 49.9841Z" fill="#90643B"/>
<path d="M132.15 33.757C129.89 41.0809 137.738 42.9118 141.944 42.9118C142.339 40.7145 145.303 35.4285 153.999 31.8624C164.869 27.4048 202.742 31.3052 204.92 28.8535C207.098 26.4019 200.793 17.1524 192.768 9.57458C186.348 3.51229 169.87 4.25035 162.433 5.37716L163.982 0.433594C163.379 1.60541 161.094 4.21756 160.026 5.37716C161.847 4.64478 163.191 4.1321 153.999 7.94049C142.509 12.701 134.975 24.6022 132.15 33.757Z" fill="#7C5023"/>
<path d="M147.829 28.1849C149.059 25.1389 151.766 18.7349 152.758 17.4868M178.782 19.3812L184.743 26.8476M182.106 14.255C184.552 16.6695 189.443 21.8775 189.443 23.393M141.944 42.9118C137.738 42.9118 129.89 41.0809 132.15 33.757C134.975 24.6022 142.509 12.701 153.999 7.94049C163.191 4.1321 161.847 4.64478 160.026 5.37716C161.094 4.21756 163.379 1.60541 163.982 0.433594L162.433 5.37716C169.87 4.25035 186.348 3.51229 192.768 9.57458C200.793 17.1524 207.098 26.4019 204.92 28.8536C202.742 31.3052 164.869 27.4048 153.999 31.8624C145.303 35.4285 142.339 40.7145 141.944 42.9118Z" stroke="#673F15"/>
<path d="M140.424 187.917L143.749 174.668C143.975 173.764 145.206 173.634 145.616 174.471L148.279 179.907C148.602 180.566 149.501 180.664 149.959 180.091L153.672 175.446C154.175 174.816 155.179 175.011 155.411 175.784L159.043 187.917M174.812 187.917H166.885C166.263 187.917 165.792 187.355 165.9 186.742C166.259 184.716 166.561 183.008 166.859 181.324M173.102 181.324H166.859M166.859 181.324C167.22 179.285 167.574 177.279 168.016 174.781C168.101 174.304 168.516 173.955 169.001 173.955H174.812M182.982 173.955C182.982 174.596 182.982 177.877 182.982 181.324M182.982 187.917C182.982 186.194 182.982 183.719 182.982 181.324M182.982 181.324H189.201C189.753 181.324 190.201 180.876 190.201 180.324V173.955V187.917M134.984 147.5C134.984 147.5 134.769 145.284 134.589 143.42C134.539 142.901 134.897 142.43 135.411 142.339L143 141M134.984 147.5L135.818 156.12C135.895 156.919 136.835 157.306 137.453 156.793L143.094 152.105C143.685 151.614 143.524 150.666 142.802 150.399L134.984 147.5ZM150.5 156.5L153.258 150M163.043 155.5C162.301 153.426 161.671 151.664 161.076 150M153.258 150L156.5 142.357C156.856 141.519 158.056 141.554 158.362 142.411C159.362 145.207 160.179 147.492 161.076 150M153.258 150H161.076M170.859 141L175.977 144.689C176.53 145.088 176.53 145.912 175.977 146.311L172.224 149.016C171.608 149.46 171.692 150.4 172.375 150.729L175.21 152.091C175.969 152.455 175.965 153.537 175.204 153.896L169.693 156.5M183 156.5L186.774 150M198 156.5C197.035 154.006 196.244 151.963 195.484 150M186.774 150L190.954 142.801C191.376 142.075 192.449 142.16 192.752 142.942C193.769 145.571 194.606 147.733 195.484 150M186.774 150H195.484" stroke="#F9B403" stroke-width="2.5"/>
</svg>
