<svg width="42" height="43" viewBox="0 0 42 43" fill="none" xmlns="http://www.w3.org/2000/svg">
<path d="M27.4363 21.5C27.4363 23.2106 26.7725 24.8512 25.5911 26.0608C24.4096 27.2704 22.8072 27.95 21.1363 27.95C19.4654 27.95 17.863 27.2704 16.6815 26.0608C15.5 24.8512 14.8363 23.2106 14.8363 21.5C14.8363 21.1323 14.8741 20.7733 14.9392 20.425H12.7363V29.0185C12.7363 29.6162 13.2088 30.1 13.7926 30.1H28.4821C28.7619 30.0994 29.03 29.9852 29.2276 29.7825C29.4253 29.5797 29.5363 29.305 29.5363 29.0185V20.425H27.3334C27.3985 20.7733 27.4363 21.1323 27.4363 21.5ZM21.1363 25.8C21.688 25.7998 22.2342 25.6885 22.7439 25.4722C23.2535 25.2559 23.7166 24.939 24.1066 24.5395C24.4966 24.14 24.8059 23.6658 25.0169 23.1439C25.2279 22.622 25.3364 22.0627 25.3363 21.4978C25.3361 20.933 25.2273 20.3737 25.0161 19.852C24.8048 19.3302 24.4953 18.8561 24.1051 18.4568C23.7149 18.0575 23.2517 17.7408 22.7419 17.5248C22.2322 17.3088 21.6859 17.1977 21.1342 17.1978C20.02 17.1981 18.9516 17.6515 18.1639 18.4584C17.3763 19.2652 16.9339 20.3593 16.9342 21.5C16.9345 22.6407 17.3773 23.7346 18.1654 24.541C18.9534 25.3474 20.0221 25.8003 21.1363 25.8ZM26.1763 16.985H28.6942C28.8615 16.985 29.0219 16.9171 29.1404 16.7962C29.2589 16.6753 29.3257 16.5112 29.3263 16.34V13.7621C29.3263 13.5905 29.2597 13.4259 29.1411 13.3045C29.0226 13.1832 28.8618 13.115 28.6942 13.115H26.1763C26.0086 13.115 25.8479 13.1832 25.7293 13.3045C25.6108 13.4259 25.5442 13.5905 25.5442 13.7621V16.34C25.5463 16.6947 25.8298 16.985 26.1763 16.985ZM21.1363 0.859985C15.7895 0.859985 10.6617 3.03455 6.88101 6.9053C3.10028 10.7761 0.976288 16.0259 0.976288 21.5C0.976288 26.9741 3.10028 32.2239 6.88101 36.0947C10.6617 39.9654 15.7895 42.14 21.1363 42.14C23.7837 42.14 26.4053 41.6061 28.8512 40.5689C31.2971 39.5316 33.5195 38.0113 35.3916 36.0947C37.2636 34.1781 38.7486 31.9027 39.7617 29.3986C40.7748 26.8944 41.2963 24.2105 41.2963 21.5C41.2963 18.7895 40.7748 16.1056 39.7617 13.6014C38.7486 11.0972 37.2636 8.8219 35.3916 6.9053C33.5195 4.9887 31.2971 3.46837 28.8512 2.43111C26.4053 1.39385 23.7837 0.859985 21.1363 0.859985ZM31.6363 29.8613C31.6363 31.175 30.5863 32.25 29.3032 32.25H12.9694C11.6863 32.25 10.6363 31.175 10.6363 29.8613V13.1386C10.6363 11.825 11.6863 10.75 12.9694 10.75H29.3032C30.5863 10.75 31.6363 11.825 31.6363 13.1386V29.8613Z" fill="#328ED0"/>
</svg>
