<svg width="165" height="412" viewBox="0 0 165 412" fill="none" xmlns="http://www.w3.org/2000/svg">
<path d="M0.627497 295.242C-1.11473 281.102 7.16085 213.415 11.5164 181.34L36.5308 176.42V215.061C31.2778 234.313 20.772 273.148 20.772 274.478C20.772 276.14 27.3154 287.358 28.4673 290.682C29.6192 294.006 31.986 301.208 25.6721 302.704C22.467 303.464 25.6721 297.206 20.772 295.242C15.872 293.278 20.772 300.348 25.6721 308.989C30.5721 317.629 27.3054 330.198 20.772 330.198C14.2386 330.198 2.80528 312.916 0.627497 295.242Z" fill="#D3A05F"/>
<path d="M138.217 213.059L131.384 191.668L133.213 173.189L159.285 170.337C160.34 174.539 162.091 203.202 163.898 207.899C166.157 213.77 154.637 265.323 156.896 278.578C159.155 291.832 161.866 316.725 152.378 326.1C142.89 335.475 138.217 326.1 138.217 324.16C138.217 322.608 139.374 310.236 141.534 307.65C139.374 307.65 138.679 314.988 133.213 310.85C126.379 305.677 141.534 292.802 141.534 287.953C141.534 284.073 139.323 236.407 138.217 213.059Z" fill="#BD8B56"/>
<path d="M162.325 174.646C164.095 125.733 137.425 98.7491 123.869 91.3715L120.549 111.014L126.912 187.373L162.325 179.349V174.646Z" fill="#FB4848"/>
<path d="M11.5448 125.677C12.4301 109.963 28.3289 98.2879 36.1676 94.4147L39.4875 136.19L30.6344 187.096L6.56494 183.499C7.85602 170.773 10.6595 141.392 11.5448 125.677Z" fill="#FB4848"/>
<path d="M46.349 95.5359C49.6336 87.5069 53.6004 88.5169 55.4998 90.2773C55.7418 90.5016 56.0543 90.6326 56.3819 90.5936C68.1931 89.1849 91.5411 86.2478 94.4272 85.2857C97.2353 84.3497 110.93 87.3452 116.643 89.0994C117.058 89.2269 117.331 89.6018 117.324 90.0362C117.109 103.586 113.202 131.375 112.243 140.197C111.023 151.424 55.8671 148.251 48.7895 146.055C41.7119 143.858 41.9561 106.274 46.349 95.5359Z" fill="#FB4949"/>
<path d="M35.4387 94.5875C38.0646 84.4588 48.2558 87.5537 53.0231 90.3672C46.6392 95.4495 50.8099 138.127 53.0231 142.83C55.2364 147.534 105.333 143.66 109.759 142.83C114.186 142 113.909 98.5646 113.909 90.3672C113.909 83.8093 121.471 87.6347 125.252 90.3672V149.747C125.252 152.403 131.132 160.347 134.072 163.987V411.584H91.9617C86.8121 375.749 91.8798 324.63 81.5961 315.765C71.3124 306.9 79.4227 370.533 75.561 411.584H33.0941V387.204V335.343C33.0941 304.137 29.6554 208.103 27.936 163.987C29.1865 162.112 31.9687 157.563 33.0941 154.374C34.5008 150.389 32.1563 107.248 35.4387 94.5875Z" fill="#5B7FFF"/>
<path d="M99.3042 86.4454L97.0156 53.48L64.5596 57.1204C63.1726 61.5023 57.1963 69.949 57.8621 73.9938C58.6943 79.0499 55.6134 84.6252 54.5731 90.288C53.5328 95.9507 69.3448 103.434 69.3448 104.445C85.4895 108.975 96.0447 94.3328 99.3042 86.4454Z" fill="#C6935C"/>
<path d="M95.0482 59.375C97.0554 58.0242 100.131 53.6842 101.417 51.683L105.674 40.192C106.139 39.6759 105.017 36.7857 96.8146 29.3538C88.6117 21.9219 61.7401 24.7089 49.3296 27.0313L46.9404 35.7406C46.675 35.7083 46.3306 39.5267 45.4642 39.9912C44.3812 40.5718 46.522 40.3528 46.0242 41.9979C45.7064 43.0483 45.4017 51.0888 45.223 56.9941C45.0959 61.1932 45.3667 65.4856 47.2329 69.2494C52.1384 79.1428 60.9458 81.2696 65.3261 80.9503C92.1532 78.3237 92.5392 61.0635 95.0482 59.375Z" fill="#D3A05F"/>
<path d="M57.6042 67.3379C59.3817 70.4251 59.122 61.0584 51.1811 64.3722" stroke="#93623E"/>
<path d="M58.1895 40.579C56.8622 44.8368 54.0482 53.5461 53.4111 54.3202C53.0372 54.7746 54.529 55.5491 56.3302 56.2028C58.3648 56.9412 60.7942 57.5254 61.375 57.3201" stroke="#93623E"/>
<path d="M76.0693 47.8609C74.9743 47.1836 70.8693 39.1274 69.177 41.3531M53.211 38.8711C51.8505 37.1293 49.2894 39.9159 46.0242 40.4578" stroke="#5D3F1C" stroke-width="2" stroke-linecap="round" stroke-linejoin="round"/>
<ellipse cx="1.74213" cy="2.8063" rx="1.74213" ry="2.8063" transform="matrix(-1 0 0 1 72.5244 42.9982)" fill="#442C26"/>
<ellipse cx="1.74213" cy="2.8063" rx="1.74213" ry="2.8063" transform="matrix(-1 0 0 1 52.3159 40.4459)" fill="#442C26"/>
<path d="M89.8489 47.767L88.3085 27.3483C100.407 28.3284 105.299 36.6502 106.233 40.6885L101.612 51.4423V49.2643C98.1389 39.1367 92.3228 44.0462 89.8489 47.767Z" fill="#90643B"/>
<path d="M106.031 40.4459C110.385 40.4459 118.51 38.5505 116.17 30.969C113.245 21.4921 105.446 9.1721 93.552 4.24411C89.4279 2.53537 87.3525 1.66694 86.4782 1.29314C86.4856 1.28409 86.4933 1.2752 86.5013 1.2666C86.7326 1.35801 87.0165 1.4715 87.3126 1.5906C86.8299 1.06615 86.6278 1.12979 86.5013 1.2666C86.1641 1.13337 85.9385 1.04702 85.9496 1.0585C85.9494 1.05825 85.9493 1.058 85.9492 1.05775L84.8214 1.5906C77.123 0.424134 60.0648 -0.339892 53.419 5.9357C45.1119 13.7802 38.5848 23.3551 40.8396 25.893C43.0944 28.4309 82.2992 24.3933 93.552 29.0077C102.554 32.6992 105.622 38.1713 106.031 40.4459Z" fill="#7C5023"/>
<path d="M99.9393 25.2008C98.6664 22.0477 95.8637 15.4183 94.8363 14.1263M67.8973 16.0874L61.7262 23.8165M64.4557 10.7808C61.924 13.2803 56.8606 18.6715 56.8606 20.2403M106.031 40.4459C110.385 40.4459 118.51 38.5505 116.17 30.969C113.245 21.4921 105.446 9.1721 93.552 4.24411C84.0369 0.301723 85.4277 0.832439 87.3126 1.5906C86.2077 0.390195 86.5731 2.27079 85.9492 1.05775L84.8214 1.5906C77.123 0.424134 60.0648 -0.339892 53.419 5.9357C45.1119 13.7802 38.5848 23.3551 40.8396 25.893C43.0944 28.4309 82.2992 24.3933 93.552 29.0077C102.554 32.6992 105.622 38.1713 106.031 40.4459Z" stroke="#673F15"/>
<path d="M68.2041 49.9655L68.9066 48.3412C68.9877 48.164 69.2426 48.1734 69.3104 48.3561L69.9354 50.0382C70.0433 50.3285 69.9988 50.6536 69.817 50.9043C69.4651 51.3894 68.7446 51.4087 68.3556 50.9528C68.1229 50.6802 68.0618 50.2945 68.2041 49.9655Z" fill="#5B7FFF"/>
<path d="M69.9463 54.8609L70.6487 53.2366C70.7299 53.0594 70.9847 53.0688 71.0526 53.2514L71.6776 54.9336C71.7855 55.2239 71.741 55.549 71.5591 55.7997C71.2073 56.2848 70.4868 56.3041 70.0978 55.8482C69.8651 55.5756 69.804 55.1899 69.9463 54.8609Z" fill="#5B7FFF"/>
<path d="M74.1651 52.8633L74.8675 51.239C74.9486 51.0618 75.2035 51.0712 75.2714 51.2539L75.8964 52.936C76.0042 53.2264 75.9598 53.5514 75.7779 53.8022C75.426 54.2872 74.7055 54.3065 74.3165 53.8507C74.0838 53.578 74.0228 53.1923 74.1651 52.8633Z" fill="#5B7FFF"/>
<path d="M50.8006 47.65L51.4861 46.0648C51.5653 45.8919 51.814 45.9011 51.8802 46.0794L52.4901 47.7209C52.5954 48.0043 52.552 48.3215 52.3745 48.5662C52.0311 49.0396 51.328 49.0584 50.9484 48.6135C50.7213 48.3475 50.6617 47.971 50.8006 47.65Z" fill="#5B7FFF"/>
<path d="M48.7156 51.0241L49.4011 49.439C49.4803 49.2661 49.729 49.2752 49.7952 49.4535L50.4052 51.0951C50.5104 51.3784 50.4671 51.6957 50.2896 51.9404C49.9462 52.4137 49.243 52.4325 48.8634 51.9877C48.6363 51.7216 48.5768 51.3452 48.7156 51.0241Z" fill="#5B7FFF"/>
<path d="M35.6855 167.373L48.8735 173.088M48.8735 173.088L40.1533 181.14M48.8735 173.088L58.7312 167.373L48.8735 172.743M48.8735 164.346V172.743M48.8735 181.14V172.743M48.8735 172.743L58.7312 179.736M63.8626 164.346L70.0749 170.87C70.44 171.253 71.0407 171.285 71.4449 170.943L79.2441 164.346L61.9694 179.736M79.2441 178.731L81.0173 172.743M81.0173 172.743L83.0934 165.732C83.2918 165.062 84.0986 164.797 84.6557 165.218L88.0959 167.822C88.6966 168.277 88.5979 169.208 87.9151 169.526L81.0173 172.743ZM95.5722 171.122V164.512C95.5722 163.959 96.02 163.512 96.5722 163.512H102.671M95.5722 171.122V177.317C95.5722 178.007 96.2551 178.49 96.9059 178.259L104.116 175.707C105.02 175.387 104.999 174.1 104.083 173.811L95.5722 171.122ZM111.19 177.726C111.091 177.305 112.113 174.634 113.392 171.552M122.549 176.578L120.178 171.122M113.392 171.552C114.215 169.569 115.145 167.416 115.951 165.583C116.301 164.787 117.427 164.793 117.773 165.59L120.178 171.122M113.392 171.552L120.178 171.122M58.7312 205.725L63.2525 196.489C63.5526 195.876 64.3651 195.737 64.8518 196.216L69.8134 201.095C70.2768 201.551 71.0449 201.45 71.3755 200.891L74.356 195.846C74.7441 195.189 75.695 195.191 76.0801 195.85L81.0173 204.289M97.2287 205.725H87.9496C87.348 205.725 86.8826 205.197 86.9573 204.6L87.5265 200.053M87.5265 200.053L88.1268 195.258C88.1894 194.757 88.6148 194.382 89.119 194.382H95.5722M87.5265 200.053H93.9158M106.931 194.382L105.866 200.053M104.801 205.725L105.866 200.053M105.866 200.053H112.633C113.082 200.053 113.475 199.754 113.596 199.322L114.977 194.382L111.19 205.725" stroke="#F9B403" stroke-width="2"/>
</svg>
